<svg xmlns="http://www.w3.org/2000/svg" width="17" height="17" viewBox="0 0 17 17"><g transform="translate(3791 -14672)"><rect width="17" height="17" transform="translate(-3791 14672)" fill="none"/><path d="M0,15.068,15.068,0l1.061,1.061L1.06,16.129Zm8.833.554H7.385V13.4a5.737,5.737,0,0,1-1.938-.6l1.094-1.1a4.346,4.346,0,0,0,5.914-4.054V6.2h1.449V7.654A5.8,5.8,0,0,1,8.834,13.4V15.62h0Zm-5.6-4.844a5.777,5.777,0,0,1-.914-3.124V6.2H3.764V7.654A4.349,4.349,0,0,0,4.287,9.72L3.229,10.778h0Zm4.5-.252,3.283-3.283v.411a2.9,2.9,0,0,1-2.9,2.9A3.054,3.054,0,0,1,7.725,10.526Zm-2.345-1.9a2.9,2.9,0,0,1-.167-.972V3.307a2.9,2.9,0,0,1,5.78-.293L9.559,4.449V3.307a1.449,1.449,0,0,0-2.9,0v4.04L5.381,8.626v0Z" transform="translate(-3790.564 14672.436)" fill="#fff"/></g></svg>