<svg xmlns="http://www.w3.org/2000/svg" width="17" height="17" viewBox="0 0 17 17"><g transform="translate(3791 -14743)"><rect width="17" height="17" transform="translate(-3791 14743)" fill="none"/><path d="M11.244,3.9a1.449,1.449,0,0,0-2.9,0V8.244a1.449,1.449,0,1,0,2.9,0ZM6.9,3.9a2.9,2.9,0,0,1,5.8,0V8.244a2.9,2.9,0,1,1-5.8,0ZM15.59,8.244V6.8H14.142V8.244a4.346,4.346,0,1,1-8.693,0V6.8H4V8.244a5.8,5.8,0,0,0,5.071,5.75v2.218H10.52V13.994A5.8,5.8,0,0,0,15.59,8.244Z" transform="translate(-3792 14743)" fill="#fff" fill-rule="evenodd"/></g></svg>