<svg xmlns="http://www.w3.org/2000/svg" width="17" height="17" viewBox="0 0 17 17"><g transform="translate(3685 -14743)"><rect width="17" height="17" transform="translate(-3685 14743)" fill="none"/><path d="M163.9,3.449h10.142A1.449,1.449,0,0,1,175.488,4.9v5.8a1.449,1.449,0,0,1-1.449,1.449H163.9a1.449,1.449,0,0,1-1.449-1.449V4.9A1.449,1.449,0,0,1,163.9,3.449ZM161,4.9A2.9,2.9,0,0,1,163.9,2h10.142a2.9,2.9,0,0,1,2.9,2.9v5.8a2.9,2.9,0,0,1-2.9,2.9h-4.346v1.449h2.173v1.449h-5.8V15.039h2.173V13.59H163.9a2.9,2.9,0,0,1-2.9-2.9Zm6.944.849L165.895,7.8,166.92,8.82,168.244,7.5v3.2h1.449V7.5l1.324,1.324L172.042,7.8l-2.049-2.049-1.024-1.024Z" transform="translate(-3845.468 14742.256)" fill="#fff" fill-rule="evenodd"/></g></svg>