<svg xmlns="http://www.w3.org/2000/svg" width="17" height="17" viewBox="0 0 17 17"><g transform="translate(3738 -14743)"><rect width="17" height="17" transform="translate(-3738 14743)" fill="none"/><path d="M83.9,6.449h7.244A1.449,1.449,0,0,1,92.59,7.9v4.346a1.449,1.449,0,0,1-1.449,1.449H83.9a1.449,1.449,0,0,1-1.449-1.449V7.9A1.449,1.449,0,0,1,83.9,6.449Zm10.139,5.927a2.9,2.9,0,0,1-2.895,2.766H83.9a2.9,2.9,0,0,1-2.9-2.9V7.9A2.9,2.9,0,0,1,83.9,5h7.244a2.9,2.9,0,0,1,2.895,2.766l2.9-2.041v8.693Zm0-1.77,1.449,1.02V8.516L94.039,9.535Z" transform="translate(-3818.468 14741.43)" fill="#fff" fill-rule="evenodd"/></g></svg>