<?xml version="1.0" encoding="utf-8"?>
<!-- Generator: Adobe Illustrator 19.0.0, SVG Export Plug-In . SVG Version: 6.00 Build 0)  -->
<svg version="1.1" id="Layer_1" xmlns="http://www.w3.org/2000/svg" xmlns:xlink="http://www.w3.org/1999/xlink" x="0px" y="0px"
	 viewBox="0 0 200 200" enable-background="new 0 0 200 200" xml:space="preserve">
<path id="XMLID_396_" d="M149.9,100c0,1.7-1.3,3-3,3l-43.3,0l0,43.3c0,1.7-1.3,3-3,3h0c-1.7,0-3-1.3-3-3l0-43.3l-44.1,0
	c-1.7,0-3-1.3-3-3c0-1.7,1.3-3,3-3h0l44.1,0l0-44.3c0-1.7,1.3-3,3-3c0,0,0,0,0,0c1.7,0,3,1.3,3,3l0,44.4l43.3,0
	C148.6,97,149.9,98.4,149.9,100z M171.2,100c0,39.2-31.8,71-71,71c-39.2,0-71-31.8-71-71s31.8-71,71-71
	C139.4,29,171.2,60.8,171.2,100z M165.2,100c0-35.9-29.2-65-65-65s-65,29.2-65,65s29.2,65,65,65S165.2,135.9,165.2,100z"/>
</svg>
