<?xml version="1.0" encoding="utf-8"?>
<!-- Generator: Adobe Illustrator 19.0.0, SVG Export Plug-In . SVG Version: 6.00 Build 0)  -->
<svg version="1.1" id="Layer_1" xmlns="http://www.w3.org/2000/svg" xmlns:xlink="http://www.w3.org/1999/xlink" x="0px" y="0px"
	 viewBox="0 0 200 200" enable-background="new 0 0 200 200" xml:space="preserve">
<path id="XMLID_1_" d="M140.4,72.3c1.2,1.2,1.2,3.1,0,4.2l-57.6,57.4c-0.6,0.6-1.4,0.9-2.1,0.9c-0.8,0-1.5-0.3-2.1-0.9l-25-25
	c-1.2-1.2-1.2-3.1,0-4.2c1.2-1.2,3.1-1.2,4.2,0l22.9,22.9l55.5-55.3C137.3,71.1,139.2,71.1,140.4,72.3z M170.2,100.2
	c0,39.1-31.7,70.7-70.7,70.7s-70.7-31.7-70.7-70.7c0-39.1,31.7-70.7,70.7-70.7S170.2,61.2,170.2,100.2z M164.2,100.2
	c0-35.7-29-64.7-64.7-64.7s-64.7,29-64.7,64.7s29,64.7,64.7,64.7S164.2,135.9,164.2,100.2z"/>
</svg>
