<?xml version="1.0" encoding="utf-8"?>
<!-- Generator: Adobe Illustrator 19.0.0, SVG Export Plug-In . SVG Version: 6.00 Build 0)  -->
<svg version="1.1" id="Layer_1" xmlns="http://www.w3.org/2000/svg" xmlns:xlink="http://www.w3.org/1999/xlink" x="0px" y="0px"
	 viewBox="0 0 200 200" enable-background="new 0 0 200 200" xml:space="preserve">
<path id="XMLID_1_" d="M169.8,165.5c1.2,1.2,1.2,3.1,0,4.2c-0.6,0.6-1.4,0.9-2.1,0.9c-0.8,0-1.5-0.3-2.1-0.9L100,104.2l-65.6,65.6
	c-0.6,0.6-1.4,0.9-2.1,0.9s-1.5-0.3-2.1-0.9c-1.2-1.2-1.2-3.1,0-4.2L95.8,100L30.2,34.4c-1.2-1.2-1.2-3.1,0-4.2
	c1.2-1.2,3.1-1.2,4.2,0L100,95.8l65.6-65.6c1.2-1.2,3.1-1.2,4.2,0c1.2,1.2,1.2,3.1,0,4.2L104.3,100L169.8,165.5z"/>
</svg>
