<?xml version="1.0" encoding="utf-8"?>
<!-- Generator: Adobe Illustrator 19.0.0, SVG Export Plug-In . SVG Version: 6.00 Build 0)  -->
<svg version="1.1" id="Layer_1" xmlns="http://www.w3.org/2000/svg" xmlns:xlink="http://www.w3.org/1999/xlink" x="0px" y="0px"
	 viewBox="0 0 200 200" enable-background="new 0 0 200 200" xml:space="preserve">
<path id="XMLID_319_" d="M137.6,59.4H59.4c-7.4,0-13.4,6-13.4,13.4v63.9c0,18.6,15.1,33.7,33.7,33.7h37.6
	c18.6,0,33.7-15.1,33.7-33.7V72.7C151,65.3,145,59.4,137.6,59.4z M145,136.6c0,15.3-12.4,27.7-27.7,27.7H79.7
	c-15.3,0-27.7-12.4-27.7-27.7V72.7c0-4.1,3.3-7.4,7.4-7.4h78.3c4.1,0,7.4,3.3,7.4,7.4V136.6z M77,85.4v60c0,1.7-1.3,3-3,3
	s-3-1.3-3-3v-60c0-1.7,1.3-3,3-3S77,83.7,77,85.4z M102,85.4v60c0,1.7-1.3,3-3,3s-3-1.3-3-3v-60c0-1.7,1.3-3,3-3S102,83.7,102,85.4z
	 M127,85.4v60c0,1.7-1.3,3-3,3s-3-1.3-3-3v-60c0-1.7,1.3-3,3-3S127,83.7,127,85.4z M171,62.7c0,1.7-1.3,3-3,3s-3-1.3-3-3
	c0-4.1-3.2-7.4-7.2-7.4h-23c-7.3,0-13.2-6-13.2-13.4c0-4.1-3.2-7.4-7.2-7.4H85.4c-4,0-7.2,3.3-7.2,7.4c0,7.4-5.9,13.4-13.2,13.4h-23
	c-4,0-7.2,3.3-7.2,7.4c0,1.7-1.3,3-3,3s-3-1.3-3-3c0-7.4,5.9-13.4,13.2-13.4h23c4,0,7.2-3.3,7.2-7.4c0-7.4,5.9-13.4,13.2-13.4h28.9
	c7.3,0,13.2,6,13.2,13.4c0,4.1,3.2,7.4,7.2,7.4h23C165.1,49.4,171,55.3,171,62.7z"/>
</svg>
