<?xml version="1.0" encoding="utf-8"?>
<!-- Generator: Adobe Illustrator 19.0.0, SVG Export Plug-In . SVG Version: 6.00 Build 0)  -->
<svg version="1.1" id="Layer_1" xmlns="http://www.w3.org/2000/svg" xmlns:xlink="http://www.w3.org/1999/xlink" x="0px" y="0px"
	 viewBox="0 0 200 200" enable-background="new 0 0 200 200" xml:space="preserve">
<path id="XMLID_516_" d="M96,164.6H58.1c-4.4,0-8-3.7-8-8.2V70.8c0-0.2,0-0.4,0-0.6l21.8,0c8,0,14.6-6.4,14.6-14.2V35.4H136
	c4.4,0,8,3.7,8,8.2v80c0,1.7,1.3,3,3,3s3-1.3,3-3v-80c0-7.8-6.3-14.2-14-14.2h-51c-3.7,0-7.3,1.5-9.9,4.2L48.2,60.8
	c-2.6,2.7-4.1,6.2-4.1,10v85.6c0,7.8,6.3,14.2,14,14.2H96c1.7,0,3-1.3,3-3S97.6,164.6,96,164.6z M79.3,37.8c0.4-0.4,0.8-0.7,1.2-1
	v19.3c0,4.5-3.8,8.2-8.6,8.2l-18.7,0L79.3,37.8z M130.9,98.7c0,1.7-1.3,3-3,3H69.2c-1.7,0-3-1.3-3-3s1.3-3,3-3h58.7
	C129.5,95.7,130.9,97.1,130.9,98.7z M65.6,82.8c0-1.7,1.3-3,3-3h58.7c1.7,0,3,1.3,3,3s-1.3,3-3,3H68.6
	C66.9,85.8,65.6,84.5,65.6,82.8z M90.2,127.5c1.7,0,3,1.3,3,3s-1.3,3-3,3H68.6c-1.7,0-3-1.3-3-3s1.3-3,3-3H90.2z M127.9,117.6H69.2
	c-1.7,0-3-1.3-3-3s1.3-3,3-3h58.7c1.7,0,3,1.3,3,3S129.5,117.6,127.9,117.6z M154.1,141.7L143.3,131c-6.2-6.2-13.6-9.5-21.3-9.5
	c0,0,0,0-0.1,0c-7.7,0-15.1,3.3-21.3,9.6L89.8,142c-2.2,2.2-2.2,6.1,0,8.3l10.7,10.8c6.2,6.3,13.6,9.6,21.4,9.6c0,0,0,0,0.1,0
	c7.8,0,15.2-3.4,21.4-9.7l10.8-10.9C156.3,147.9,156.3,143.9,154.1,141.7z M149.8,146l-10.7,10.8c-5.1,5.1-11,7.9-17.2,7.9
	c0,0,0,0,0,0c-6.1,0-12-2.7-17.1-7.8l-10.6-10.6c0,0,0-0.1,0-0.1l10.7-10.8c5.1-5.1,11-7.8,17.1-7.8c0,0,0,0,0,0
	c6.1,0,12,2.7,17,7.7L149.8,146C149.8,145.9,149.8,145.9,149.8,146z M122.1,132.3c-7.8,0-14.2,6.2-14.2,13.8
	c0,7.6,6.4,13.8,14.2,13.8c7.8,0,14.2-6.2,14.2-13.8C136.2,138.5,129.9,132.3,122.1,132.3z M122.1,153.9c-4.5,0-8.2-3.5-8.2-7.8
	c0-4.3,3.7-7.8,8.2-7.8c4.5,0,8.2,3.5,8.2,7.8C130.2,150.4,126.6,153.9,122.1,153.9z"/>
</svg>
