<?xml version="1.0" encoding="utf-8"?>
<!-- Generator: Adobe Illustrator 19.0.0, SVG Export Plug-In . SVG Version: 6.00 Build 0)  -->
<svg version="1.1" id="Layer_1" xmlns="http://www.w3.org/2000/svg" xmlns:xlink="http://www.w3.org/1999/xlink" x="0px" y="0px"
	 viewBox="0 0 200 200" enable-background="new 0 0 200 200" xml:space="preserve">
<path id="XMLID_1_" d="M170,121.1v46.6c0,1.7-1.3,3-3,3H32.3c-1.7,0-3-1.3-3-3v-46.6c0-1.7,1.3-3,3-3s3,1.3,3,3v43.6H164v-43.6
	c0-1.7,1.3-3,3-3S170,119.4,170,121.1z M97.7,149.6c0.6,0.5,1.3,0.8,2,0.8c0.7,0,1.4-0.3,2-0.8l48.6-43c1.2-1.1,1.4-3,0.3-4.2
	s-3-1.4-4.2-0.3L103,140.5v-109c0-1.7-1.3-3-3-3s-3,1.3-3,3v109.4l-43.3-39.4c-1.2-1.1-3.1-1-4.2,0.2c-1.1,1.2-1,3.1,0.2,4.2
	L97.7,149.6z"/>
</svg>
