<?xml version="1.0" encoding="utf-8"?>
<!-- Generator: Adobe Illustrator 19.0.0, SVG Export Plug-In . SVG Version: 6.00 Build 0)  -->
<svg version="1.1" id="Layer_1" xmlns="http://www.w3.org/2000/svg" xmlns:xlink="http://www.w3.org/1999/xlink" x="0px" y="0px"
	 viewBox="0 0 200 200" enable-background="new 0 0 200 200" xml:space="preserve">
<path id="XMLID_1_" d="M159.1,104.7c-2,2.8-4.2,5.3-6.5,7.7l-53.4,54.9l-52-53.5c-3.9-4-7.5-8.5-10.3-13.4
	c-20.1-34.6-2-67.8,26.6-67.8c10.9,0,23.3,4.8,35.7,16.3c11.9-11.8,23.9-16.7,34.5-16.7c0,0,0,0,0,0l0,6c-9.9,0-20.4,5.2-30.3,15
	c-1.2,1.2-2.7,1.7-4.2,1.7c-1.5,0-2.9-0.5-4.1-1.6c-10.4-9.6-21.3-14.7-31.6-14.7C53.2,38.7,44.3,43.9,39,53
	c-7.1,12.3-5.9,28.9,3.1,44.5c2.4,4.2,5.6,8.3,9.4,12.2l47.7,49l49.1-50.5c2.4-2.5,4.4-4.8,5.9-7c12.4-17.6,10.8-35.4,5.2-46.3
	c-5.4-10.4-15-16.6-25.7-16.6v-6C163.6,32.3,182.7,71.3,159.1,104.7z"/>
</svg>
