<?xml version="1.0" encoding="utf-8"?>
<!-- Generator: Adobe Illustrator 19.0.0, SVG Export Plug-In . SVG Version: 6.00 Build 0)  -->
<svg version="1.1" id="Layer_1" xmlns="http://www.w3.org/2000/svg" xmlns:xlink="http://www.w3.org/1999/xlink" x="0px" y="0px"
	 viewBox="0 0 200 200" enable-background="new 0 0 200 200" xml:space="preserve">
<path id="XMLID_462_" d="M166.3,82.9l-55.9-49.4c0,0-0.1,0-0.1-0.1c-5.6-4.6-14.5-4.6-20.1,0c0,0-0.1,0-0.1,0.1L34.1,82.9
	c-2.8,2.3-4.4,6.3-4.4,9v66.7c0,6.9,6.5,12.4,14.5,12.4h27.2c8,0,14.5-5.6,14.5-12.4v-32.9c0-3.5,3.8-6.4,8.5-6.4h12.9
	c4.7,0,8.5,2.9,8.5,6.4v32.9c0,6.9,6.5,12.4,14.5,12.4h25.8c8,0,14.5-5.6,14.5-12.4V91.8C170.7,88.5,169.1,85.2,166.3,82.9z
	 M164.7,158.5c0,3.5-3.8,6.4-8.5,6.4h-25.8c-4.7,0-8.5-2.9-8.5-6.4v-32.9c0-6.9-6.5-12.4-14.5-12.4H94.5c-8,0-14.5,5.6-14.5,12.4
	v32.9c0,3.5-3.8,6.4-8.5,6.4H44.2c-4.7,0-8.5-2.9-8.5-6.4V91.8c0-0.8,0.9-3.2,2.3-4.4c0,0,0.1,0,0.1-0.1L94,38c3.4-2.7,9-2.7,12.4,0
	l55.9,49.4c0,0,0.1,0,0.1,0.1c1.5,1.2,2.3,2.7,2.3,4.4V158.5z"/>
</svg>
