<?xml version="1.0" encoding="utf-8"?>
<!-- Generator: Adobe Illustrator 19.0.0, SVG Export Plug-In . SVG Version: 6.00 Build 0)  -->
<svg version="1.1" id="Layer_1" xmlns="http://www.w3.org/2000/svg" xmlns:xlink="http://www.w3.org/1999/xlink" x="0px" y="0px"
	 viewBox="0 0 200 200" enable-background="new 0 0 200 200" xml:space="preserve">
<path id="XMLID_852_" fill="#231F20" d="M39.2,139.9h121.7c5.5,0,9.9-4.4,9.9-9.9V37.9c0-5.5-4.4-9.9-9.9-9.9H39.2
	c-5.5,0-9.9,4.4-9.9,9.9V130C29.3,135.4,33.7,139.9,39.2,139.9z M35.3,37.9c0-2.1,1.7-3.9,3.9-3.9h121.7c2.1,0,3.9,1.7,3.9,3.9V130
	c0,2.1-1.7,3.9-3.9,3.9H39.2c-2.1,0-3.9-1.7-3.9-3.9V37.9z M170.9,149c0,1.7-1.3,3-3,3H103v12.7h19c1.7,0,3,1.3,3,3s-1.3,3-3,3H77.5
	c-1.7,0-3-1.3-3-3s1.3-3,3-3H97V152H32.1c-1.7,0-3-1.3-3-3s1.3-3,3-3h135.8C169.6,146,170.9,147.3,170.9,149z"/>
</svg>
