<?xml version="1.0" encoding="utf-8"?>
<!-- Generator: Adobe Illustrator 24.0.1, SVG Export Plug-In . SVG Version: 6.00 Build 0)  -->
<svg version="1.1" id="Layer_1" xmlns="http://www.w3.org/2000/svg" xmlns:xlink="http://www.w3.org/1999/xlink" x="0px" y="0px"
	 viewBox="0 0 200 200" style="enable-background:new 0 0 200 200;" xml:space="preserve">
<style type="text/css">
	.st0{display:none;}
	.st1{fill:#FF0303;}
</style>
<path id="XMLID_73_" class="st0" d="M100.2,30.1c-3.4,0-6.9,2-8.2,5.9L81.3,72.3c-1.1,3.5-4.4,5.9-8.2,5.9H38.3
	c-8.3,0-11.8,10.6-5,15.5l28.2,20.5c3,2.2,4.3,6.1,3.1,9.6l-12.9,36.1c-2,6,2.8,11.3,8.2,11.3c1.7,0,3.4-0.5,5-1.7L95.2,146
	c1.5-1.1,3.3-1.6,5-1.6s3.5,0.5,5,1.6l30.4,23.8c1.6,1.2,3.3,1.7,5,1.7c5.4,0,10.1-5.2,8.2-11.3l-13-36.4c-1.1-3.5,0.1-7.4,3.1-9.6
	l28.2-20.5c6.7-4.9,3.3-15.5-5-15.5h-34.8c-3.7,0-7-2.4-8.2-5.9L108.4,36C107.1,32,103.6,30.1,100.2,30.1L100.2,30.1z"/>
<path id="XMLID_1_" class="st1" d="M159.1,104.7c-2,2.8-4.2,5.3-6.5,7.7l-53.4,54.9l-52-53.5c-3.9-4-7.5-8.5-10.3-13.4
	c-20.1-34.6-2-67.8,26.6-67.8c10.9,0,23.3,4.8,35.7,16.3c11.9-11.8,23.9-16.7,34.5-16.7l0,0C163.6,32.3,182.7,71.3,159.1,104.7z"/>
</svg>
