<?xml version="1.0" encoding="utf-8"?>
<!-- Generator: Adobe Illustrator 19.0.0, SVG Export Plug-In . SVG Version: 6.00 Build 0)  -->
<svg version="1.1" id="Layer_1" xmlns="http://www.w3.org/2000/svg" xmlns:xlink="http://www.w3.org/1999/xlink" x="0px" y="0px"
	 viewBox="0 0 200 200" enable-background="new 0 0 200 200" xml:space="preserve">
<path id="XMLID_559_" d="M149.4,37H52.2c-12.1,0-21.9,9.7-21.9,21.7v93.7c0,6.1,5.1,10.2,10.3,10.2c2.5,0,5.1-0.9,7.2-3l10-9.9
	c5-5,11.8-7.7,18.8-7.7h72.8c12.1,0,21.9-9.7,21.9-21.7V58.8C171.3,46.8,161.5,37,149.4,37z M165.3,120.3c0,8.7-7.1,15.7-15.9,15.7
	H76.6c-8.7,0-16.9,3.4-23,9.5l-10,9.9c-0.8,0.8-1.8,1.3-2.9,1.3c-1.8,0-4.3-1.3-4.3-4.2V58.8c0-8.7,7.1-15.7,15.9-15.7h97.2
	c8.8,0,15.9,7.1,15.9,15.7V120.3z M77,88.4c0,1.7-1.3,3-3,3H56.5c-1.7,0-3-1.3-3-3s1.3-3,3-3H74C75.7,85.4,77,86.7,77,88.4z
	 M113.5,88.4c0,1.7-1.3,3-3,3H92.9c-1.7,0-3-1.3-3-3s1.3-3,3-3h17.5C112.1,85.4,113.5,86.7,113.5,88.4z M148.5,88.4c0,1.7-1.3,3-3,3
	H128c-1.7,0-3-1.3-3-3s1.3-3,3-3h17.5C147.1,85.4,148.5,86.7,148.5,88.4z"/>
</svg>
