<?xml version="1.0" encoding="utf-8"?>
<!-- Generator: Adobe Illustrator 19.0.0, SVG Export Plug-In . SVG Version: 6.00 Build 0)  -->
<svg version="1.1" id="Layer_1" xmlns="http://www.w3.org/2000/svg" xmlns:xlink="http://www.w3.org/1999/xlink" x="0px" y="0px"
	 viewBox="0 0 200 200" enable-background="new 0 0 200 200" xml:space="preserve">
<path id="XMLID_492_" d="M168.6,121.2l-3.3-6.7c-5-10.2-12-19.3-20.9-27.2c-9.1-8.1-14.1-18.8-14.1-30V56c0-6.6-2.7-12.9-7.7-17.8
	c-5.8-5.7-14.1-8.9-22.8-8.9c-0.2,0-0.4,0-0.6,0C82.7,29.5,69.3,41.5,69.3,56V58c0,11.4-5.1,22.1-14.4,30.2l-0.1,0.1
	c-8.6,7.6-15.6,16.4-20.5,26.2l-3.5,6.9c-3.2,6.3-2.9,13.4,0.8,19.4c4.4,7.1,12.7,11.5,21.9,11.5c0.1,0,0.1,0,0.2,0l22.7-0.1
	c1.6,10.8,11.1,19.1,22.6,19.1c11.6,0,21.2-8.5,22.7-19.4l24.2-0.1c9.1-0.1,17.4-4.4,21.7-11.4C171.2,134.4,171.6,127.4,168.6,121.2
	z M99,165.2c-8.2,0-15-5.7-16.5-13.1l33.1-0.2C114.2,159.5,107.3,165.2,99,165.2z M162.5,137.1c-3.3,5.3-9.6,8.5-16.6,8.6l-65.9,0.4
	c-0.3-0.1-0.5-0.1-0.8-0.1c-0.3,0-0.6,0.1-0.8,0.1l-24.7,0.2c-7.1,0-13.6-3.3-16.9-8.6c-2.6-4.3-2.8-9.1-0.6-13.5l3.5-6.9
	c4.6-9.1,11.1-17.3,19.2-24.4l0.1-0.1C69.4,83.5,75.3,71.1,75.3,58V56c0-11.2,10.8-20.5,24-20.7c0.2,0,0.3,0,0.5,0
	c7.1,0,13.9,2.6,18.6,7.2c3.8,3.8,5.9,8.6,5.9,13.5v1.3c0,13,5.7,25.2,16.1,34.5c0,0,0,0,0,0c8.3,7.4,14.8,15.9,19.5,25.4l3.3,6.7
	C165.3,128.2,165.1,132.9,162.5,137.1z"/>
</svg>
