<?xml version="1.0" encoding="utf-8"?>
<!-- Generator: Adobe Illustrator 19.0.0, SVG Export Plug-In . SVG Version: 6.00 Build 0)  -->
<svg version="1.1" id="Layer_1" xmlns="http://www.w3.org/2000/svg" xmlns:xlink="http://www.w3.org/1999/xlink" x="0px" y="0px"
	 viewBox="0 0 200 200" enable-background="new 0 0 200 200" xml:space="preserve">
<path id="XMLID_787_" d="M148.7,28.7L38.1,140.4l-2.6,13.5c-0.4,2.2-0.1,4.3,0.8,6.1l-6.1,6.1c-1.2,1.2-1.2,3.1,0,4.2
	c0.6,0.6,1.4,0.9,2.1,0.9s1.5-0.3,2.1-0.9l6-6c1.3,0.7,2.8,1.1,4.4,1.1c0.6,0,1.3-0.1,2-0.2l13.4-2.8L170.9,50.7L148.7,28.7z
	 M148.7,37.2l13.7,13.5l-12.6,12.8L136.1,50L148.7,37.2z M43.7,143.3l88.2-89.1l5.1,5.1l-95.5,95.5L43.7,143.3z M57.3,156.8
	l-11.7,2.4c-0.1,0-0.1,0-0.2,0l95.7-95.7l4.3,4.3L57.3,156.8z"/>
</svg>
