<?xml version="1.0" encoding="utf-8"?>
<!-- Generator: Adobe Illustrator 19.0.0, SVG Export Plug-In . SVG Version: 6.00 Build 0)  -->
<svg version="1.1" id="Layer_1" xmlns="http://www.w3.org/2000/svg" xmlns:xlink="http://www.w3.org/1999/xlink" x="0px" y="0px"
	 viewBox="0 0 200 200" enable-background="new 0 0 200 200" xml:space="preserve">
<path id="XMLID_1_" d="M100,90.6c16.7,0,30.3-13.5,30.3-30.3c0-16.7-13.5-30.3-30.3-30.3c-16.7,0-30.3,13.5-30.3,30.3
	C69.7,77,83.3,90.6,100,90.6z M100,36c13.4,0,24.3,10.9,24.3,24.3S113.4,84.6,100,84.6S75.7,73.7,75.7,60.3S86.6,36,100,36z
	 M144.4,101.1H55.6c-14.4,0-26,11.6-26,26v44.4h140.7v-44.4C170.4,112.8,158.7,101.1,144.4,101.1z M164.4,165.5H35.6v-38.4
	c0-11,9-20,20-20h88.7c11,0,20,9,20,20V165.5z"/>
</svg>
