<?xml version="1.0" encoding="utf-8"?>
<!-- Generator: Adobe Illustrator 19.0.0, SVG Export Plug-In . SVG Version: 6.00 Build 0)  -->
<svg version="1.1" id="Layer_1" xmlns="http://www.w3.org/2000/svg" xmlns:xlink="http://www.w3.org/1999/xlink" x="0px" y="0px"
	 viewBox="0 0 200 200" enable-background="new 0 0 200 200" xml:space="preserve">
<path id="XMLID_424_" d="M100.4,89.6c16.7,0,30.3-13.5,30.3-30.3s-13.5-30.3-30.3-30.3S70.2,42.6,70.2,59.3S83.7,89.6,100.4,89.6z
	 M100.4,35.1c13.4,0,24.3,10.9,24.3,24.3s-10.9,24.3-24.3,24.3S76.2,72.7,76.2,59.3S87,35.1,100.4,35.1z M108.6,167.8
	c0,1.7-1.3,3-3,3H39.1c-5.3,0-9.5-4.3-9.5-9.6v-39.8c0-13.3,10.8-24.2,24.1-24.2H146c13.3,0,24.1,10.8,24.1,24.2c0,1.7-1.3,3-3,3
	s-3-1.3-3-3c0-10-8.1-18.2-18.1-18.2H53.6c-10,0-18.1,8.1-18.1,18.2v39.8c0,2,1.6,3.6,3.5,3.6h66.5
	C107.2,164.8,108.6,166.2,108.6,167.8z M169,141.2L158.2,130c-6.2-6.4-13.6-9.8-21.3-9.8c0,0,0,0,0,0c-7.7,0-15.1,3.4-21.3,9.9
	l-10.9,11.3c-2.1,2.2-2.1,6.2,0,8.4l10.7,11.2c6.2,6.5,13.6,9.9,21.4,9.9c0,0,0,0,0,0c7.8,0,15.2-3.5,21.4-10l10.8-11.3
	C171.1,147.4,171.1,143.4,169,141.2z M164.6,145.5l-10.7,11.2c-5.1,5.3-11,8.1-17.1,8.2c0,0,0,0,0,0c-6.1,0-12-2.8-17.1-8.1
	l-10.6-11c0-0.1,0-0.2,0-0.3l10.8-11.2c5.1-5.3,11-8,17-8.1c0,0,0,0,0,0c6.1,0,11.9,2.8,17,8l10.7,11
	C164.6,145.3,164.6,145.4,164.6,145.5z M136.9,131.4c-7.8,0-14.2,6.4-14.2,14.2c0,7.8,6.4,14.2,14.2,14.2s14.2-6.4,14.2-14.2
	C151,137.8,144.7,131.4,136.9,131.4z M136.9,153.8c-4.5,0-8.2-3.7-8.2-8.2c0-4.5,3.7-8.2,8.2-8.2s8.2,3.7,8.2,8.2
	C145,150.1,141.4,153.8,136.9,153.8z"/>
</svg>
