<?xml version="1.0" encoding="utf-8"?>
<!-- Generator: Adobe Illustrator 19.0.0, SVG Export Plug-In . SVG Version: 6.00 Build 0)  -->
<svg version="1.1" id="Layer_1" xmlns="http://www.w3.org/2000/svg" xmlns:xlink="http://www.w3.org/1999/xlink" x="0px" y="0px"
	 viewBox="0 0 200 200" enable-background="new 0 0 200 200" xml:space="preserve">
<path id="XMLID_257_" fill="#231F20" d="M99,27.6c-39.1,0-70.7,31.7-70.7,70.7c0,39.1,31.5,70.7,70.5,70.7s70.9-31.7,70.9-70.7
	C169.7,59.3,138.1,27.6,99,27.6z M146.7,142l-5.4-5.4c-1.2-1.2-3.1-1.2-4.2,0c-1.2,1.2-1.2,3.1,0,4.2l5.4,5.4
	c-10.8,9.8-25,16-40.6,16.8v-7.8c0-1.7-1.3-3-3-3c-1.7,0-3,1.3-3,3v7.8c-15.1-0.7-29.3-6.6-40.5-16.8l5.5-5.5c1.2-1.2,1.2-3.1,0-4.2
	c-1.2-1.2-3.1-1.2-4.2,0l-5.5,5.5c-10.2-11.2-16.1-25.5-16.8-40.6l7.8,0c1.7,0,3-1.3,3-3c0-1.7-1.3-3-3-3c0,0,0,0,0,0l-7.7,0
	c0.7-15.6,7-29.8,16.9-40.6l5.5,5.5c0.6,0.6,1.4,0.9,2.1,0.9c0.8,0,1.5-0.3,2.1-0.9c1.2-1.2,1.2-3.1,0-4.2l-5.5-5.4
	c10.8-9.9,25-16.1,40.6-16.8l0,7.8c0,1.7,1.3,3,3,3c0,0,0,0,0,0c1.7,0,3-1.3,3-3l0-7.7c15.6,0.7,29.7,7,40.6,16.9l-5.5,5.5
	c-1.2,1.2-1.2,3.1,0,4.2c0.6,0.6,1.4,0.9,2.1,0.9c0.8,0,1.5-0.3,2.1-0.9l5.5-5.5c9.8,10.8,16.1,25,16.8,40.6l-7.8,0
	c-1.7,0-3,1.3-3,3c0,1.7,1.3,3,3,3c0,0,0,0,0,0l7.7,0C162.9,117.1,156.6,131.2,146.7,142z M119,140.3c0.6,1.5-0.1,3.3-1.7,3.9
	c-0.4,0.1-0.7,0.2-1.1,0.2c-1.2,0-2.3-0.7-2.8-1.9l-16.8-42L66.8,86.9c-1.5-0.7-2.2-2.5-1.5-4c0.7-1.5,2.5-2.2,4-1.5l32.1,14.7
	L119,140.3z"/>
</svg>
