<?xml version="1.0" encoding="utf-8"?>
<!-- Generator: Adobe Illustrator 19.0.0, SVG Export Plug-In . SVG Version: 6.00 Build 0)  -->
<svg version="1.1" id="Layer_1" xmlns="http://www.w3.org/2000/svg" xmlns:xlink="http://www.w3.org/1999/xlink" x="0px" y="0px"
	 viewBox="0 0 200 200" enable-background="new 0 0 200 200" xml:space="preserve">
<path id="XMLID_2_" d="M100,73c-15.3,0-27.8,12.5-27.8,27.8s12.5,27.8,27.8,27.8s27.8-12.5,27.8-27.8S115.3,73,100,73z M100,122.5
	c-12,0-21.8-9.8-21.8-21.8C78.2,88.8,88,79,100,79s21.8,9.8,21.8,21.8C121.8,112.8,112,122.5,100,122.5z M164.7,90.1h-5.1
	c-2.6,0-4.9-1.7-5.5-4.2c-1.2-4.5-3-8.8-5.3-12.8c-1.3-2.3-0.9-5.1,0.9-6.9l3.6-3.6c2.3-2.3,2.3-5.9,0-8.1l-7-7
	c-1.1-1.1-2.6-1.7-4.1-1.7c-1.5,0-2.9,0.6-4.1,1.7l-3.6,3.6c-1.1,1.1-2.6,1.7-4.1,1.7c-1,0-1.9-0.3-2.8-0.8c-4-2.3-8.3-4.1-12.8-5.3
	c-2.5-0.7-4.2-3-4.2-5.5V36c0-3.2-2.6-5.8-5.8-5.8h-9.8c-3.2,0-5.8,2.6-5.8,5.8v5.1c0,2.6-1.7,4.9-4.2,5.5c-4.5,1.2-8.8,3-12.8,5.3
	c-0.9,0.5-1.9,0.8-2.8,0.8c-1.5,0-3-0.6-4.1-1.7l-3.6-3.6c-1.1-1.1-2.6-1.7-4.1-1.7c-1.5,0-3,0.6-4.1,1.7l-7,7
	c-2.3,2.3-2.3,5.9,0,8.1l3.6,3.6c1.8,1.8,2.2,4.6,0.9,6.9c-2.3,4-4.1,8.3-5.3,12.8c-0.7,2.5-3,4.2-5.5,4.2h-5.1
	c-3.2,0-5.8,2.6-5.8,5.8v9.8c0,3.2,2.6,5.8,5.8,5.8h5.1c2.6,0,4.9,1.7,5.5,4.2c1.2,4.5,3,8.8,5.3,12.8c1.3,2.2,0.9,5.1-0.9,6.9
	l-3.6,3.6c-2.3,2.3-2.3,5.9,0,8.2l7,6.9c1.1,1.1,2.6,1.7,4.1,1.7c1.5,0,2.9-0.6,4.1-1.7l3.6-3.6c1.1-1.1,2.6-1.7,4.1-1.7
	c1,0,1.9,0.2,2.8,0.8c4,2.3,8.3,4.1,12.8,5.3c2.5,0.7,4.2,3,4.2,5.5v5.1c0,3.2,2.6,5.8,5.8,5.8h9.8c3.2,0,5.8-2.6,5.8-5.8v-5.1
	c0-2.6,1.7-4.8,4.2-5.5c4.5-1.3,8.8-3,12.8-5.3c0.9-0.5,1.9-0.8,2.8-0.8c1.5,0,3,0.6,4.1,1.7l3.6,3.6c1.1,1.1,2.6,1.7,4.1,1.7
	c1.5,0,3-0.6,4.1-1.7l7-6.9c2.3-2.3,2.3-5.9,0-8.2l-3.6-3.6c-1.8-1.8-2.2-4.7-0.9-6.9c2.3-4,4.1-8.3,5.3-12.8c0.7-2.5,3-4.2,5.5-4.2
	h5.1c3.2,0,5.8-2.6,5.8-5.8v-9.8C170.5,92.7,167.9,90.1,164.7,90.1z M164.5,105.5h-4.9c-5.3,0-9.9,3.5-11.3,8.6
	c-1.1,4-2.7,7.8-4.7,11.4c-2.6,4.6-1.8,10.4,1.9,14.1l3.5,3.5l-6.6,6.6l-3.5-3.5c-2.2-2.2-5.2-3.4-8.3-3.4c-2,0-4,0.5-5.8,1.5
	c-3.6,2-7.5,3.7-11.4,4.7c-5.1,1.4-8.6,6-8.6,11.3v4.9h-9.4v-4.9c0-5.3-3.5-9.9-8.6-11.3c-4-1.1-7.8-2.7-11.4-4.7
	c-1.8-1-3.8-1.5-5.8-1.5c-3.1,0-6.1,1.2-8.3,3.4l-3.5,3.5l-6.6-6.6l3.5-3.5c3.7-3.7,4.5-9.5,1.9-14.1c-2-3.6-3.6-7.4-4.7-11.4
	c-1.4-5.1-6-8.6-11.3-8.6h-4.9v-9.4h4.9c5.3,0,9.9-3.5,11.3-8.6c1.1-4,2.7-7.8,4.7-11.4c2.6-4.6,1.8-10.4-1.9-14.1l-3.5-3.5l6.6-6.6
	l3.5,3.5c2.2,2.2,5.2,3.5,8.3,3.5c2,0,4-0.5,5.8-1.5c3.6-2.1,7.5-3.7,11.4-4.8c5.1-1.4,8.6-6,8.6-11.3v-4.9h9.4v4.9
	c0,5.3,3.5,9.9,8.6,11.3c4,1.1,7.8,2.7,11.4,4.8c1.8,1,3.8,1.5,5.8,1.5c3.1,0,6.1-1.2,8.3-3.5l3.5-3.5l6.6,6.6l-3.5,3.5
	c-3.7,3.7-4.5,9.5-1.9,14.1c2,3.6,3.6,7.4,4.7,11.4c1.4,5.1,6,8.6,11.3,8.6h4.9V105.5z"/>
</svg>
