<?xml version="1.0" encoding="utf-8"?>
<!-- Generator: Adobe Illustrator 19.0.0, SVG Export Plug-In . SVG Version: 6.00 Build 0)  -->
<svg version="1.1" id="Layer_1" xmlns="http://www.w3.org/2000/svg" xmlns:xlink="http://www.w3.org/1999/xlink" x="0px" y="0px"
	 viewBox="0 0 200 200" enable-background="new 0 0 200 200" xml:space="preserve">
<path id="XMLID_737_" d="M147.4,119.3c-10.6,0-19.5,7-22.5,16.6l-44.7-8.6c0.2-1.4,0.4-2.8,0.4-4.2c0-8.1-3.8-15.2-9.6-19.9L92.6,77
	c1.3,0.8,2.7,1.4,4.2,2c2.5,0.9,5.1,1.3,7.8,1.3c13,0,23.5-10.5,23.5-23.5s-10.5-23.5-23.5-23.5c-13,0-23.5,10.5-23.5,23.5
	c0,6.3,2.6,12.2,6.8,16.5l-22,26.6c-3.2-1.5-6.8-2.3-10.6-2.3c-14,0-25.4,11.4-25.4,25.4c0,14,11.4,25.4,25.4,25.4
	c10.5,0,19.5-6.4,23.4-15.4l45.4,8.7c0,0.3,0,0.6,0,0.9c0,13,10.5,23.5,23.5,23.5c13,0,23.5-10.5,23.5-23.5S160.3,119.3,147.4,119.3
	z M87,56.8c0-9.6,7.8-17.5,17.5-17.5c9.6,0,17.5,7.8,17.5,17.5s-7.8,17.5-17.5,17.5c-2,0-3.9-0.3-5.8-1c-1.8-0.6-3.4-1.5-4.8-2.6
	c0,0,0,0,0,0c0,0,0,0,0,0C89.6,67.5,87,62.4,87,56.8z M55.2,142.5c-10.7,0-19.4-8.7-19.4-19.4s8.7-19.4,19.4-19.4
	s19.4,8.7,19.4,19.4S65.9,142.5,55.2,142.5z M147.4,160.2c-9.6,0-17.5-7.8-17.5-17.5s7.8-17.5,17.5-17.5c9.6,0,17.5,7.8,17.5,17.5
	S157,160.2,147.4,160.2z"/>
</svg>
