<?xml version="1.0" encoding="utf-8"?>
<!-- Generator: Adobe Illustrator 19.0.0, SVG Export Plug-In . SVG Version: 6.00 Build 0)  -->
<svg version="1.1" id="Layer_1" xmlns="http://www.w3.org/2000/svg" xmlns:xlink="http://www.w3.org/1999/xlink" x="0px" y="0px"
	 viewBox="0 0 200 200" enable-background="new 0 0 200 200" xml:space="preserve">
<path id="XMLID_1_" d="M101,89.6c16.7,0,30.3-13.5,30.3-30.3c0-16.7-13.5-30.3-30.3-30.3c-16.7,0-30.3,13.5-30.3,30.3
	C70.7,76,84.3,89.6,101,89.6z M101,35c13.4,0,24.3,10.9,24.3,24.3S114.4,83.6,101,83.6S76.7,72.7,76.7,59.3S87.6,35,101,35z
	 M145.4,100.1H56.6c-14.4,0-26,11.6-26,26v44.4h140.7v-44.4C171.4,111.8,159.7,100.1,145.4,100.1z M165.4,164.5H36.6v-38.4
	c0-11,9-20,20-20h88.7c11,0,20,9,20,20V164.5z"/>
</svg>
