<?xml version="1.0" encoding="utf-8"?>
<!-- Generator: Adobe Illustrator 19.0.0, SVG Export Plug-In . SVG Version: 6.00 Build 0)  -->
<svg version="1.1" id="Layer_1" xmlns="http://www.w3.org/2000/svg" xmlns:xlink="http://www.w3.org/1999/xlink" x="0px" y="0px"
	 viewBox="0 0 200 200" enable-background="new 0 0 200 200" xml:space="preserve">
<path id="XMLID_719_" d="M149.8,67.4l-57.1,57.1c-3.7,3.7-8.5,5.6-13.5,5.6c-2,0-4.1-0.3-6.1-1c-1.6-0.5-2.4-2.2-1.9-3.8
	c0.5-1.6,2.2-2.4,3.8-1.9c4.8,1.6,9.9,0.4,13.5-3.2l57.1-57.1c6.4-6.4,6.4-16.8,0-23.2c-3.1-3.1-7.2-4.8-11.6-4.8
	c-4.4,0-8.5,1.7-11.6,4.8L65.3,97c-3.3,3.3-4.6,8.1-3.4,12.7c0.4,1.6-0.5,3.2-2.1,3.7c-1.6,0.4-3.2-0.5-3.7-2.1
	c-1.7-6.6,0.2-13.6,5-18.4l57.1-57.1c4.2-4.2,9.8-6.6,15.8-6.6c6,0,11.6,2.3,15.8,6.6C158.5,44.4,158.5,58.6,149.8,67.4z M138.8,84
	c-1.5,0.6-2.3,2.3-1.7,3.9c1.9,4.9,0.7,10.4-2.9,14.1L77,159c-6.4,6.4-16.8,6.4-23.2,0c-6.4-6.4-6.4-16.8,0-23.2L111,78.8
	c3.7-3.7,9.2-4.9,14.1-3c1.5,0.6,3.3-0.2,3.9-1.7c0.6-1.5-0.2-3.3-1.7-3.9c-7.1-2.8-15.2-1.1-20.5,4.3l-57.1,57.1
	c-8.7,8.7-8.7,22.9,0,31.6c4.4,4.4,10.1,6.5,15.8,6.5c5.7,0,11.5-2.2,15.8-6.5l57.1-57.1c5.4-5.4,7.1-13.4,4.3-20.5
	C142,84.1,140.3,83.4,138.8,84z"/>
</svg>
