<?xml version="1.0" encoding="utf-8"?>
<!-- Generator: Adobe Illustrator 19.0.0, SVG Export Plug-In . SVG Version: 6.00 Build 0)  -->
<svg version="1.1" id="Layer_1" xmlns="http://www.w3.org/2000/svg" xmlns:xlink="http://www.w3.org/1999/xlink" x="0px" y="0px"
	 viewBox="0 0 200 200" enable-background="new 0 0 200 200" xml:space="preserve">
<path id="XMLID_989_" d="M170.5,100.5c0,1.7-1.3,3-3,3H39.3l39.4,43.3c1.1,1.2,1,3.1-0.2,4.2c-0.6,0.5-1.3,0.8-2,0.8
	c-0.8,0-1.6-0.3-2.2-1l-43.7-48.1c-1-1.1-1-2.9,0-4l44-49.6c1.1-1.2,3-1.4,4.2-0.3c1.2,1.1,1.4,3,0.3,4.2L39.7,97.5h127.8
	C169.2,97.5,170.5,98.8,170.5,100.5z"/>
</svg>
