<?xml version="1.0" encoding="utf-8"?>
<!-- Generator: Adobe Illustrator 19.0.0, SVG Export Plug-In . SVG Version: 6.00 Build 0)  -->
<svg version="1.1" id="Layer_1" xmlns="http://www.w3.org/2000/svg" xmlns:xlink="http://www.w3.org/1999/xlink" x="0px" y="0px"
	 viewBox="0 0 200 200" enable-background="new 0 0 200 200" xml:space="preserve">
<path id="XMLID_759_" d="M65.9,107.7l-4.8,24.4c-0.4,2,0.2,4,1.7,5.4c1.1,1.1,2.7,1.7,4.2,1.7c0.4,0,0.8,0,1.2-0.1l24.4-5L168,56.9
	c3.7-3.8,3.7-9.9-0.1-13.7l-12.9-12.8c-1.9-1.8-4.3-2.8-6.9-2.8c-2.6,0-5,1.1-6.9,2.9l-74.7,76.5L65.9,107.7z M145.4,34.8
	c0.7-0.7,1.6-1.1,2.6-1.1c0,0,0,0,0,0c1,0,1.9,0.4,2.6,1.1l12.9,12.8c1.4,1.4,1.5,3.8,0,5.2l-12.3,12.6l-18.2-18L145.4,34.8z
	 M71.4,110.6l57.6-59l18.2,18l-57.6,59L67,133.3L71.4,110.6z M169.9,103.2v46.3c0,12.2-10,22.2-22.2,22.2H50.5
	c-12.2,0-22.2-10-22.2-22.2V52c0-12.2,10-22.2,22.2-22.2h46.6c1.7,0,3,1.3,3,3s-1.3,3-3,3H50.5c-8.9,0-16.2,7.3-16.2,16.2v97.5
	c0,8.9,7.3,16.2,16.2,16.2h97.1c8.9,0,16.2-7.3,16.2-16.2v-46.3c0-1.7,1.3-3,3-3S169.9,101.6,169.9,103.2z"/>
</svg>
