<?xml version="1.0" encoding="utf-8"?>
<!-- Generator: Adobe Illustrator 19.0.0, SVG Export Plug-In . SVG Version: 6.00 Build 0)  -->
<svg version="1.1" id="Layer_1" xmlns="http://www.w3.org/2000/svg" xmlns:xlink="http://www.w3.org/1999/xlink" x="0px" y="0px"
	 viewBox="0 0 200 200" enable-background="new 0 0 200 200" xml:space="preserve">
<path id="XMLID_975_" d="M170.4,102.8l-43.7,48.1c-0.6,0.7-1.4,1-2.2,1c-0.7,0-1.4-0.3-2-0.8c-1.2-1.1-1.3-3-0.2-4.2l39.4-43.3H32.8
	c-1.7,0-3-1.3-3-3s1.3-3,3-3h128.5l-38.4-43.3c-1.1-1.2-1-3.1,0.3-4.2c1.2-1.1,3.1-1,4.2,0.3l43,48.6
	C171.5,99.9,171.5,101.6,170.4,102.8z"/>
</svg>
