<?xml version="1.0" encoding="utf-8"?>
<!-- Generator: Adobe Illustrator 19.0.0, SVG Export Plug-In . SVG Version: 6.00 Build 0)  -->
<svg version="1.1" id="Layer_1" xmlns="http://www.w3.org/2000/svg" xmlns:xlink="http://www.w3.org/1999/xlink" x="0px" y="0px"
	 viewBox="0 0 200 200" enable-background="new 0 0 200 200" xml:space="preserve">
<path id="XMLID_827_" fill="#231F20" d="M150.8,60.8v-3.6c0-12.7-10.3-23-23-23h-76c-12.7,0-23,10.3-23,23v77.6
	c0,5.4,4.4,8.9,8.9,8.9c2.2,0,4.4-0.8,6.2-2.6l8.6-8.6c1.1-1.1,2.3-2.1,3.6-2.9v25c0,5,4.1,8.3,8.3,8.3c2,0,4.1-0.8,5.8-2.4l8-8
	c4-4,9.5-6.3,15.2-6.3h55c11.9,0,21.5-9.6,21.5-21.5V82.2C170,71.1,161.6,62,150.8,60.8z M56.1,122.2c-3,1.4-5.7,3.3-8.1,5.7
	l-8.6,8.6c-0.5,0.5-1.1,0.7-1.7,0.7c-1,0-2.5-0.7-2.5-2.5V57.2c0-9.2,7.5-16.6,16.6-16.6h76c9.2,0,16.6,7.5,16.6,16.6v45.5
	c0,9.2-7.5,16.6-16.6,16.6h-59c-2.2,0-4.3,0.2-6.3,0.7L56.1,122.2z M163.6,124.6c0,8.3-6.8,15.1-15.1,15.1h-55
	c-7.4,0-14.5,2.9-19.7,8.2l-8,8c-0.4,0.4-0.8,0.6-1.3,0.6c-0.5,0-2-0.4-2-1.9v-28c2-0.6,4.2-0.9,6.3-0.9h59c12.7,0,23-10.3,23-23
	V67.3c7.2,1.1,12.8,7.4,12.8,14.9V124.6z"/>
</svg>
