<?xml version="1.0" encoding="utf-8"?>
<!-- Generator: Adobe Illustrator 19.0.0, SVG Export Plug-In . SVG Version: 6.00 Build 0)  -->
<svg version="1.1" id="Layer_1" xmlns="http://www.w3.org/2000/svg" xmlns:xlink="http://www.w3.org/1999/xlink" x="0px" y="0px"
	 viewBox="0 0 200 200" enable-background="new 0 0 200 200" xml:space="preserve">
<path id="XMLID_539_" d="M136,42.9c-8.6-8.7-21.3-13.5-35.7-13.5c-30.3,0-48.5,18.5-48.5,49.5c0,22.5,29.2,69.2,41.8,88.3
	c1.5,2.3,4,3.6,6.6,3.6c0,0,0,0,0,0c2.7,0,5.2-1.4,6.7-3.7c15.5-24,41.6-67.4,41.8-88.2C148.9,63.7,144.6,51.6,136,42.9z
	 M101.8,163.9c-0.5,0.8-1.3,0.9-1.6,0.9c0,0,0,0,0,0c-0.3,0-1.1-0.1-1.6-0.9v0c-9.6-14.5-40.8-63.5-40.8-85
	c0-27.6,15.5-43.5,42.5-43.5c12.9,0,24,4.1,31.5,11.7c7.5,7.6,11.2,18.3,11,31.8C142.5,99.4,111.4,149.1,101.8,163.9z M100.2,52
	c-13.6,0-24.7,11.1-24.7,24.7c0,13.6,11.1,24.7,24.7,24.7c13.6,0,24.7-11.1,24.7-24.7C124.9,63.1,113.9,52,100.2,52z M100.2,95.4
	c-10.3,0-18.7-8.4-18.7-18.7c0-10.3,8.4-18.7,18.7-18.7c10.3,0,18.7,8.4,18.7,18.7C118.9,87,110.5,95.4,100.2,95.4z"/>
</svg>
