<?xml version="1.0" encoding="utf-8"?>
<!-- Generator: Adobe Illustrator 19.0.0, SVG Export Plug-In . SVG Version: 6.00 Build 0)  -->
<svg version="1.1" id="Layer_1" xmlns="http://www.w3.org/2000/svg" xmlns:xlink="http://www.w3.org/1999/xlink" x="0px" y="0px"
	 viewBox="0 0 200 200" enable-background="new 0 0 200 200" xml:space="preserve">
<path id="XMLID_743_" d="M100,119.2c15.4,0,28-12.6,28-28V57.7c0-15.4-12.6-28-28-28c-15.4,0-28,12.6-28,28v33.6
	C72,106.7,84.6,119.2,100,119.2z M78,57.7c0-12.1,9.9-22,22-22c12.1,0,22,9.9,22,22v33.6c0,12.1-9.9,22-22,22c-12.1,0-22-9.9-22-22
	V57.7z M103,141.1v23.9h22c1.7,0,3,1.3,3,3s-1.3,3-3,3H75c-1.7,0-3-1.3-3-3s1.3-3,3-3h22v-23.9c-27.8-1.6-50-24.7-50-52.9
	c0-1.7,1.3-3,3-3s3,1.3,3,3c0,25.9,21.1,47,47,47c25.9,0,47-21.1,47-47c0-1.7,1.3-3,3-3s3,1.3,3,3C153,116.5,130.8,139.6,103,141.1z
	"/>
</svg>
