<?xml version="1.0" encoding="utf-8"?>
<!-- Generator: Adobe Illustrator 19.0.0, SVG Export Plug-In . SVG Version: 6.00 Build 0)  -->
<svg version="1.1" id="Layer_1" xmlns="http://www.w3.org/2000/svg" xmlns:xlink="http://www.w3.org/1999/xlink" x="0px" y="0px"
	 viewBox="0 0 200 200" enable-background="new 0 0 200 200" xml:space="preserve">
<path id="XMLID_1_" d="M170.7,100c0,1.7-1.3,3-3,3l-64.7,0l0,64.7c0,1.7-1.3,3-3,3c-1.7,0-3-1.3-3-3l0-64.7l-64.7,0
	c-1.7,0-3-1.3-3-3s1.3-3,3-3L97,97l0-64.7c0-1.7,1.3-3,3-3c1.7,0,3,1.3,3,3l0,64.7l64.7,0C169.4,97,170.7,98.3,170.7,100z"/>
</svg>
