<?xml version="1.0" encoding="utf-8"?>
<!-- Generator: Adobe Illustrator 19.0.0, SVG Export Plug-In . SVG Version: 6.00 Build 0)  -->
<svg version="1.1" id="Layer_1" xmlns="http://www.w3.org/2000/svg" xmlns:xlink="http://www.w3.org/1999/xlink" x="0px" y="0px"
	 viewBox="0 0 200 200" enable-background="new 0 0 200 200" xml:space="preserve">
<path id="XMLID_334_" d="M169.5,165.2l-35.7-35.5c9.7-10.7,15.5-24.8,15.5-40.3c0-33.2-26.9-60-60-60s-60,26.9-60,60s26.9,60,60,60
	c15.5,0,29.6-5.9,40.3-15.5l35.7,35.6c0.6,0.6,1.4,0.9,2.1,0.9c0.8,0,1.5-0.3,2.1-0.9C170.6,168.3,170.6,166.4,169.5,165.2z
	 M89.3,143.4c-29.8,0-54-24.2-54-54s24.2-54,54-54c29.8,0,54,24.2,54,54S119.1,143.4,89.3,143.4z"/>
</svg>
