<?xml version="1.0" encoding="utf-8"?>
<!-- Generator: Adobe Illustrator 19.0.0, SVG Export Plug-In . SVG Version: 6.00 Build 0)  -->
<svg version="1.1" id="Layer_1" xmlns="http://www.w3.org/2000/svg" xmlns:xlink="http://www.w3.org/1999/xlink" x="0px" y="0px"
	 viewBox="0 0 200 200" enable-background="new 0 0 200 200" xml:space="preserve">
<path id="XMLID_384_" d="M167.4,29.7c-0.5,0-1,0.1-1.5,0.3l-133,54.7c-3.2,1.3-3,5.9,0.2,7L89.6,109c1.1,0.4,2,1.3,2.4,2.4
	l16.2,56.8c0.6,1.7,2.1,2.6,3.6,2.6c1.4,0,2.8-0.8,3.4-2.3l55.7-133.5C171.9,32.3,169.9,29.7,167.4,29.7z M112.1,160.2l-14.4-50.4
	c0-0.1,0-0.1-0.1-0.2c-0.9-2.9-3.2-5.2-6.1-6.2c-0.1,0-0.1,0-0.2-0.1L41.1,87.9l122.2-50.3L112.1,160.2z"/>
</svg>
