<?xml version="1.0" encoding="utf-8"?>
<!-- Generator: Adobe Illustrator 19.0.0, SVG Export Plug-In . SVG Version: 6.00 Build 0)  -->
<svg version="1.1" id="Layer_1" xmlns="http://www.w3.org/2000/svg" xmlns:xlink="http://www.w3.org/1999/xlink" x="0px" y="0px"
	 viewBox="0 0 200 200" enable-background="new 0 0 200 200" xml:space="preserve">
<path id="XMLID_134_" d="M85,166.9c0,1.7-1.3,3-3,3H39.1c-6.2,0-11.2-4.9-11.2-11v-31.5c0-15.9,13.2-28.8,29.3-28.8h52.8
	c3.7,0.2,3.7,1.8,3.7,3.2c0,1.4-0.8,2.8-3.7,2.8H57.3c-12.9,0-23.3,10.2-23.3,22.8v31.5c0,2.8,2.3,5,5.2,5H82
	C83.7,163.9,85,165.2,85,166.9z M68.8,57.7c0-16.5,13.4-29.9,29.9-29.9s29.9,13.4,29.9,29.9c0,16.5-13.4,29.9-29.9,29.9
	S68.8,74.2,68.8,57.7z M74.8,57.7c0,13.2,10.7,23.9,23.9,23.9c13.2,0,23.9-10.7,23.9-23.9s-10.7-23.9-23.9-23.9
	C85.5,33.8,74.8,44.5,74.8,57.7z M135.6,136.4c-2.6-1.8-5.2-3.7-7.8-5.6c-2.2-1.6-4.4-3.1-6.6-4.7c-1.4-1-3.2-0.6-4.2,0.7l0,0
	c-1,1.3-0.6,3.2,0.7,4.2c1.9,1.4,3.9,2.8,5.7,4.1c0.5,0.4,0.2,1.2-0.4,1.2c-5.4,0-9.1,0-19.1,0c-1.6,0-2.9,1.3-2.9,2.9v0.1
	c0,1.6,1.3,2.9,2.9,2.9c7.5,0,16.2,0,26.7,0c3.4,0,4.8,1.4,4.9,4.8c0.1,3.2-0.2,6.4,0.1,9.6c0.3,4.5-2.7,7.4-7.3,7.3
	c0,0-21.9,0-29.5,0c-1.7,0-3.1,1.4-3.1,3.1c0,1.7,1.4,3.1,3.1,3.1h32.4c0.2-0.1,10.3,0,10.2-10.8c0.5-4.4,0.3-8.9,0.1-13.3
	C141.2,141.7,139,138.6,135.6,136.4z M113.7,148.3L113.7,148.3c0-1.6-1.3-3-3-3H86.3c-1.6,0-3,1.3-3,3v0c0,1.6,1.3,3,3,3h24.5
	C112.4,151.3,113.7,150,113.7,148.3z M113.7,157.6c0-1.6-1.3-2.8-2.8-2.8H89.2c-1.6,0-2.8,1.3-2.8,2.8s1.3,2.8,2.8,2.8h21.7
	C112.4,160.4,113.7,159.1,113.7,157.6z M169.2,107.9c0-2.7,0-5.4,0-8.1c0-1.7-1.4-3-3-3l-0.1,0c-1.6,0-3,1.3-3,3c0,2.3,0,4.8,0,7
	c0,0.6-0.8,0.9-1.2,0.4c-3.1-4.4-11.9-16.4-17.6-24.5c-0.9-1.3-2.7-1.6-4-0.7l-0.1,0c-1.3,0.9-1.6,2.8-0.7,4.1
	c4.4,6.1,15.9,22.1,22.1,30.7c2,2.7,1.7,4.7-1.1,6.7c-2.6,1.9-5.3,3.6-7.8,5.6c-3.5,2.8-7.6,2.1-10.2-1.7c0,0-12.7-17.9-17.1-24
	c-1-1.4-2.9-1.7-4.3-0.7c-1.4,1-1.7,2.9-0.7,4.3l18.9,26.4c0.2,0.1,6,8.4,14.7,2.1c3.8-2.2,7.4-4.9,10.9-7.6
	c3.2-2.5,4.4-6.1,4.3-10.2C169.1,114.3,169.2,111.1,169.2,107.9z M128.4,86.1l14.2,19.9c1,1.3,2.8,1.6,4.1,0.7
	c1.3-1,1.6-2.8,0.7-4.1l-14.2-19.9c-1-1.3-2.8-1.6-4.1-0.7C127.7,83,127.4,84.8,128.4,86.1z M123.3,89.8c-1.3,0.9-1.6,2.7-0.7,4
	l12.6,17.6c0.9,1.3,2.7,1.6,4,0.7s1.6-2.7,0.7-4l-12.6-17.6C126.4,89.2,124.6,88.9,123.3,89.8z"/>
</svg>
