<?xml version="1.0" encoding="utf-8"?>
<!-- Generator: Adobe Illustrator 19.0.0, SVG Export Plug-In . SVG Version: 6.00 Build 0)  -->
<svg version="1.1" id="Layer_1" xmlns="http://www.w3.org/2000/svg" xmlns:xlink="http://www.w3.org/1999/xlink" x="0px" y="0px"
	 viewBox="0 0 200 200" enable-background="new 0 0 200 200" xml:space="preserve">
<path id="XMLID_2_" d="M170.4,99c0,29.1-12.3,45.7-32.2,63.2c-0.6,0.5-1.3,0.7-2,0.7c-0.8,0-1.7-0.3-2.3-1c-1.1-1.2-1-3.1,0.3-4.2
	c19.1-16.8,30.1-31.7,30.1-58.7c0-28.8-10.4-37.8-26.2-51.4c-1.6-1.4-3.2-2.8-4.9-4.2c-1.2-1.1-1.4-3-0.3-4.2c1.1-1.2,3-1.4,4.2-0.3
	c1.7,1.5,3.3,2.9,4.8,4.2C158.5,57.2,170.4,67.4,170.4,99z M149.1,101.3c0-21.9-11.2-34.7-23.4-45.2c-1.3-1.1-3.1-0.9-4.2,0.3
	c-1.1,1.3-0.9,3.1,0.3,4.2c12.8,11.1,21.3,22.2,21.3,40.6c0,19.5-8.1,27.5-21.3,38.9c-1.3,1.1-1.4,3-0.3,4.2c0.6,0.7,1.4,1,2.3,1
	c0.7,0,1.4-0.2,2-0.7C140.2,132.2,149.1,123,149.1,101.3z M113.6,75.4c-1.3-1.1-3.2-0.9-4.2,0.4c-1.1,1.3-0.9,3.2,0.4,4.2
	c6.2,5.1,9.6,11.8,9.6,19c0,7.1-3.4,13.9-9.6,19c-1.3,1.1-1.5,2.9-0.4,4.2c0.6,0.7,1.5,1.1,2.3,1.1c0.7,0,1.4-0.2,1.9-0.7
	c7.6-6.3,11.7-14.6,11.7-23.6C125.4,90,121.2,81.6,113.6,75.4z M103.1,100c0,6.2-4.3,11.4-10,12.7v30c0,3.5-1.5,6.2-4.2,7.6
	c-1.1,0.5-2.3,0.8-3.5,0.8c-1.8,0-3.6-0.6-5.2-1.7l-41-29.1c-6.3-4.6-10-11.8-10-19.7c0-7.9,3.6-15,9.9-19.6l41.1-29.2
	c2.4-1.8,5.7-2,8.4-0.6c2.8,1.4,4.5,4.2,4.5,7.3v28.7C98.9,88.6,103.1,93.8,103.1,100z M87.2,58.5c0-1.2-0.8-1.8-1.2-2
	c-0.2-0.1-0.5-0.2-1-0.2c-0.4,0-0.8,0.1-1.2,0.4L42.7,85.9c-4.7,3.4-7.4,8.8-7.4,14.8c0,5.9,2.7,11.3,7.5,14.8l41,29.1c0,0,0,0,0,0
	c0.8,0.6,1.8,0.8,2.4,0.4c0.8-0.4,0.9-1.6,0.9-2.2V58.5z M97.1,100c0-2.8-1.6-5.3-4-6.4v12.8C95.5,105.2,97.1,102.8,97.1,100z"/>
</svg>
