<?xml version="1.0" encoding="utf-8"?>
<!-- Generator: Adobe Illustrator 19.0.0, SVG Export Plug-In . SVG Version: 6.00 Build 0)  -->
<svg version="1.1" id="Layer_1" xmlns="http://www.w3.org/2000/svg" xmlns:xlink="http://www.w3.org/1999/xlink" x="0px" y="0px"
	 viewBox="0 0 200 200" enable-background="new 0 0 200 200" xml:space="preserve">
<path id="XMLID_580_" d="M169,95.1l-24.9-25.7c-13.2-13.6-28.6-20.4-44.1-20.4c-15.5,0-31,6.9-44.3,20.7l-25,26
	c-2.3,2.4-2.3,7.3,0,9.7l24.7,25.7c13.3,13.8,28.8,20.7,44.3,20.7c15.6,0,31.2-7,44.5-20.9l24.8-26C171.3,102.3,171.3,97.4,169,95.1
	z M164.6,100.7l-24.7,25.9c-11.9,12.5-25.8,19-40.1,19c-14.3,0-28.1-6.5-39.9-18.8l-24.6-25.6c-0.2-0.4-0.2-1.2,0-1.5l24.9-25.9
	C71.9,61.4,85.8,54.9,100,54.9c14.2,0,27.9,6.4,39.7,18.6l24.8,25.6C164.8,99.5,164.8,100.3,164.6,100.7z M100,72.4
	c-15.4,0-28,12.6-28,28s12.6,28,28,28s28-12.6,28-28S115.4,72.4,100,72.4z M100,122.4c-12.1,0-22-9.9-22-22s9.9-22,22-22
	s22,9.9,22,22S112.1,122.4,100,122.4z"/>
</svg>
