<svg xmlns="http://www.w3.org/2000/svg" width="17.543" height="17.543" viewBox="0 0 17.543 17.543"><g transform="translate(3738.272 -14671.729)"><rect width="17" height="17" transform="translate(-3738 14672)" fill="none"/><g transform="translate(0.436 -12)"><path d="M0,15.069,15.069,0l1.06,1.06L1.061,16.129Zm5.108-1.927,1.447-1.447h3.587a1.449,1.449,0,0,0,1.449-1.449V6.66l1.378-1.379a2.851,2.851,0,0,1,.071.485l2.9-2.041v8.693l-2.9-2.042a2.9,2.9,0,0,1-2.894,2.766ZM13.04,7.535V8.606l1.449,1.021V6.516ZM0,10.242V5.9A2.9,2.9,0,0,1,2.9,3h7.244a2.84,2.84,0,0,1,.751.112L9.559,4.449H2.9A1.449,1.449,0,0,0,1.453,5.9v4.345A1.444,1.444,0,0,0,2.406,11.6L1.332,12.675A2.893,2.893,0,0,1,0,10.242Z" transform="translate(-3738 14684.436)" fill="#fff" stroke="rgba(0,0,0,0)" stroke-miterlimit="10" stroke-width="1"/></g></g></svg>